<svg width="34" height="34" viewBox="0 0 34 34" fill="none" xmlns="http://www.w3.org/2000/svg">
<path d="M17.083 25.2668C17.4723 25.2668 17.7987 25.1369 18.062 24.8772C18.326 24.6168 18.458 24.2946 18.458 23.9106V18.5274H24C24.3613 18.5274 24.674 18.3972 24.938 18.1368C25.2013 17.8764 25.333 17.5546 25.333 17.1712C25.333 16.7603 25.2013 16.4246 24.938 16.1642C24.674 15.9038 24.3473 15.7736 23.958 15.7736H18.458V10.1438C18.458 9.78744 18.326 9.47939 18.062 9.21966C17.7987 8.95928 17.4723 8.82909 17.083 8.82909C16.6943 8.82909 16.368 8.95928 16.104 9.21966C15.84 9.47939 15.708 9.80125 15.708 10.1853V15.7736H10C9.63867 15.7736 9.32601 15.9107 9.06201 16.1849C8.79867 16.4591 8.66701 16.7879 8.66701 17.1712C8.66701 17.5546 8.79867 17.8764 9.06201 18.1368C9.32601 18.3972 9.65267 18.5274 10.042 18.5274H15.708V23.952C15.708 24.3084 15.84 24.6168 16.104 24.8772C16.368 25.1369 16.6943 25.2668 17.083 25.2668ZM17 33.4866C14.6667 33.4866 12.486 33.0619 10.458 32.2123C8.43067 31.3628 6.66701 30.1983 5.16701 28.7188C3.66701 27.2394 2.48634 25.4999 1.62501 23.5003C0.763675 21.5001 0.333008 19.3493 0.333008 17.0479C0.333008 14.7466 0.763675 12.5958 1.62501 10.5956C2.48634 8.59599 3.66701 6.85649 5.16701 5.37703C6.66701 3.89758 8.43067 2.73309 10.458 1.88355C12.486 1.03402 14.6667 0.609253 17 0.609253C19.3333 0.609253 21.514 1.03402 23.542 1.88355C25.5693 2.73309 27.333 3.89758 28.833 5.37703C30.333 6.85649 31.5137 8.59599 32.375 10.5956C33.2363 12.5958 33.667 14.7466 33.667 17.0479C33.667 19.3493 33.2363 21.5001 32.375 23.5003C31.5137 25.4999 30.333 27.2394 28.833 28.7188C27.333 30.1983 25.5693 31.3628 23.542 32.2123C21.514 33.0619 19.3333 33.4866 17 33.4866ZM17 30.7329C20.8333 30.7329 24.104 29.3971 26.812 26.7255C29.5207 24.0546 30.875 20.8288 30.875 17.0479C30.875 13.2671 29.5207 10.0413 26.812 7.37035C24.104 4.69879 20.8333 3.36301 17 3.36301C13.1667 3.36301 9.89601 4.69879 7.18801 7.37035C4.47934 10.0413 3.12501 13.2671 3.12501 17.0479C3.12501 20.8288 4.47934 24.0546 7.18801 26.7255C9.89601 29.3971 13.1667 30.7329 17 30.7329Z" fill="#56CC6A"/>
</svg>
