<svg width="30" height="30" viewBox="0 0 30 30" fill="none" xmlns="http://www.w3.org/2000/svg">
<path d="M26.5 29.0616L17.1667 19.8562C16.3333 20.5137 15.375 21.0342 14.2917 21.4178C13.2083 21.8014 12.0556 21.9932 10.8333 21.9932C7.80556 21.9932 5.24333 20.9592 3.14667 18.8912C1.04889 16.8222 0 14.2945 0 11.3082C0 8.32192 1.04889 5.79425 3.14667 3.72521C5.24333 1.65726 7.80556 0.623291 10.8333 0.623291C13.8611 0.623291 16.4239 1.65726 18.5217 3.72521C20.6183 5.79425 21.6667 8.32192 21.6667 11.3082C21.6667 12.5137 21.4722 13.6507 21.0833 14.7192C20.6944 15.7877 20.1667 16.7329 19.5 17.5548L28.875 26.8014C29.1806 27.1027 29.3333 27.4726 29.3333 27.911C29.3333 28.3493 29.1667 28.7329 28.8333 29.0616C28.5278 29.363 28.1389 29.5137 27.6667 29.5137C27.1944 29.5137 26.8056 29.363 26.5 29.0616ZM10.8333 18.7055C12.9167 18.7055 14.6878 17.9866 16.1467 16.5488C17.6044 15.1099 18.3333 13.363 18.3333 11.3082C18.3333 9.25343 17.6044 7.50658 16.1467 6.06767C14.6878 4.62987 12.9167 3.91096 10.8333 3.91096C8.75 3.91096 6.97889 4.62987 5.52 6.06767C4.06222 7.50658 3.33333 9.25343 3.33333 11.3082C3.33333 13.363 4.06222 15.1099 5.52 16.5488C6.97889 17.9866 8.75 18.7055 10.8333 18.7055Z" fill="#56CC6A"/>
</svg>
